<?xml version="1.0" encoding="UTF-8" standalone="no"?>
<svg xmlns="http://www.w3.org/2000/svg" viewBox="-32 -32 64 64" width="100%" height="100%">

	<style>
		.background {
			fill: #555;
		}
		path {
			fill-opacity: 0.8;
			stroke:none;
		}
		.hands {
			fill:darksalmon;
		}
		.green {
			fill:limegreen;
			fill-opacity: 1;
		}
		.silver {
			fill:silver;
		}
		.blad {
			.body { fill:black; }
			.face { fill:#9a9; }
		}
		.ldpe {
			.body { fill:darkgreen }
			.face { fill:#ab9; }
		}
		.bald {
			.body { fill:#841 }
			.face { fill:#ec5; }
		}
	</style>
	<rect class="background" x="-32" y="-32" width="64" height="64"/>

	<g class="blad">
		<path class="body" d="M -32,32 -32,-24 -15,-28 -10,32 Z" />
		<path class="face" d="M -28,-25 -13,-23 -21,-6 -31,-13 z" />
	</g>

	<g class="bald">
		<path class="body" d="M 13,-14 32,-12 32,32  7,32 Z"/>
		<path class="face" d="M 14,-6 27,-9 27,5 15,1 Z" />
	</g>

	<g class="ldpe">
		<path class="body" d="M -20,31 -8,-26 6,-28 17,31 Z"	/>
		<path class="face" d="M -9,-24 7,-25 5,-7 -6,-7 z"/>
	</g>

	<path class="hands" d="M -15,17 16,14 6,23 -12,23 Z"/>
	<path class="green" d="M 3,-14 23,15 -25,16Z"/>
	<path class="silver" d="M -7,24 14,24 15,32 -8,32 "/>

</svg>
