<?xml version="1.0" encoding="UTF-8" standalone="no"?>
<svg xmlns="http://www.w3.org/2000/svg" viewBox="-32 -32 64 64" width="100%" height="100%">

	<style>
		.background {
			fill: dimgrey;
		}
		path {
			fill-opacity: 0.8;
			stroke:none;
		}
		.hands {
			fill:salmon;
		}
		.green {
			fill:limegreen;
		}
		.silver {
			fill:silver;
		}
		.blad {
			.body { fill:black; }
			.face { fill:#bcb; }
		}
		.ldpe {
			.body { fill:darkgreen }
			.face { fill:#dfe; }
		}
		.bald {
			.body { fill:#841 }
			.face { fill:#eb5; }
		}
	</style>
	<rect class="background" x="-32" y="-32" width="64" height="64"/>

	<g class="blad">
		<path class="body" d="M -32,32 -32,-25 -15,-29 -10,32 Z" />
		<path class="face" d="M -28,-25 -13,-23 -19,-5 -31,-13 z" />
	</g>

	<g class="ldpe">
		<path class="body" d="M -20,31 -8,-26 6,-28 17,31 Z"	/>
		<path class="face" d="m -7,-24 12,-2 -2,17 -7,0 z"/>
	</g>

	<g class="bald">
		<path class="body" d="M 9,-14 32,-12 32,32 H 16 Z"/>
		<path class="face" d="M 14,-6 27,-9 27,5 15,1 Z" />
	</g>

	<g class="hands">
		<path d="M -16,13 16,11 6,23 -13,23 Z"/>
	</g>

	<g class="green">
		<path d="M 3,-9 21,12 -23,12 Z"/>
	</g>
	<g class="silver">
		<path d="M -12,24 14,24 15,32 -13,32 "/>
	</g>

</svg>
